<?xml version="1.0" encoding="utf-8"?>
<!-- Generator: Adobe Illustrator 19.2.0, SVG Export Plug-In . SVG Version: 6.00 Build 0)  -->
<svg version="1.1" id="Layer_1" xmlns="http://www.w3.org/2000/svg" xmlns:xlink="http://www.w3.org/1999/xlink" x="0px" y="0px"
	 viewBox="0 0 80 80" style="enable-background:new 0 0 80 80;" xml:space="preserve">
<style type="text/css">
	.st0{fill:#002A4A;}
</style>
<path class="st0" d="M66.8,10.4c-4.2-3.8-9.1-6.7-14.6-8.5l-1.4,5.4c4.6,1.5,8.7,3.9,12.2,7L66.8,10.4z M79,31.5l-5.2,1.4
	c0.5,2.3,0.7,4.6,0.7,7.1c0,2.4-0.3,4.8-0.7,7.1l5.2,1.4c0.6-2.7,0.9-5.6,0.9-8.5C79.9,37,79.6,34.2,79,31.5z M72.7,29.2l5.4-1.4
	c-1.8-5.5-4.7-10.5-8.5-14.6L65.6,17C68.8,20.5,71.2,24.6,72.7,29.2z M50.7,72.6l1.4,5.4c5.5-1.8,10.4-4.7,14.6-8.5l-3.9-3.9
	C59.4,68.7,55.3,71.1,50.7,72.6z M13.2,69.5c4.2,3.8,9.1,6.7,14.6,8.5l1.4-5.4c-4.6-1.5-8.7-3.9-12.2-7L13.2,69.5z M13.2,10.4
	l3.9,3.9c3.5-3.1,7.6-5.5,12.2-7l-1.4-5.4C22.3,3.7,17.4,6.6,13.2,10.4z M5.5,39.9c0-2.4,0.3-4.8,0.7-7.1L1,31.5
	c-0.6,2.7-0.9,5.6-0.9,8.5c0,2.9,0.3,5.7,0.9,8.5L6.2,47C5.7,44.7,5.5,42.4,5.5,39.9z M40,74.5c-2.4,0-4.8-0.3-7.1-0.7L31.5,79
	c2.7,0.6,5.6,0.9,8.5,0.9c2.9,0,5.7-0.3,8.5-0.9l-1.4-5.2C44.8,74.2,42.4,74.5,40,74.5z M40,5.4c2.4,0,4.8,0.3,7.1,0.7l1.4-5.2
	C45.7,0.3,42.9,0,40,0c-2.9,0-5.7,0.3-8.5,0.9l1.4,5.2C35.2,5.7,37.6,5.4,40,5.4z M65.6,62.9l3.9,3.9c3.8-4.2,6.7-9.1,8.5-14.6
	l-5.4-1.4C71.2,55.2,68.8,59.4,65.6,62.9z M7.3,50.7L2,52.1c1.8,5.5,4.7,10.5,8.5,14.6l3.9-3.9C11.2,59.4,8.8,55.2,7.3,50.7z
	 M14.4,17l-3.9-3.9c-3.8,4.2-6.8,9.2-8.5,14.7l5.4,1.4C8.8,24.7,11.2,20.5,14.4,17z"/>
</svg>
