<?xml version="1.0" encoding="utf-8"?>
<!-- Generator: Adobe Illustrator 19.2.0, SVG Export Plug-In . SVG Version: 6.00 Build 0)  -->
<svg version="1.1" id="Layer_1" xmlns="http://www.w3.org/2000/svg" xmlns:xlink="http://www.w3.org/1999/xlink" x="0px" y="0px"
	 viewBox="0 0 80 80" style="enable-background:new 0 0 80 80;" xml:space="preserve">
<style type="text/css">
	.st0{fill:#444444;}
</style>
<path class="st0" d="M1.9,27.8l2.4,0.6c1.6-5.1,4.3-9.7,7.8-13.6l-1.7-1.7C6.7,17.3,3.7,22.3,1.9,27.8z M40,2.5
	c2.7,0,5.3,0.3,7.8,0.8l0.6-2.4C45.7,0.3,42.9,0,40,0c-2.9,0-5.7,0.3-8.5,0.9l0.6,2.4C34.7,2.8,37.3,2.5,40,2.5z M2.5,39.9
	c0-2.7,0.3-5.3,0.8-7.8L1,31.5c-0.6,2.7-0.9,5.6-0.9,8.5c0,2.9,0.3,5.7,0.9,8.5l2.4-0.6C2.8,45.2,2.5,42.6,2.5,39.9z M78,27.8
	c-1.8-5.5-4.7-10.5-8.5-14.6l-1.7,1.7c3.5,3.9,6.2,8.5,7.8,13.5L78,27.8z M51.5,4.3c5.1,1.6,9.7,4.3,13.6,7.8l1.7-1.7
	c-4.2-3.8-9.1-6.7-14.6-8.5L51.5,4.3z M13.2,10.4l1.7,1.7c3.9-3.5,8.5-6.2,13.6-7.8l-0.6-2.4C22.3,3.7,17.4,6.6,13.2,10.4z
	 M51.5,75.6l0.6,2.4c5.5-1.8,10.4-4.7,14.6-8.5l-1.7-1.7C61.2,71.2,56.6,73.9,51.5,75.6z M2,52.1c1.8,5.5,4.7,10.5,8.5,14.6l1.7-1.7
	C8.7,61.2,6,56.6,4.4,51.5L2,52.1z M79,31.5l-2.4,0.6c0.5,2.5,0.8,5.1,0.8,7.8c0,2.7-0.3,5.3-0.8,7.8l2.4,0.6
	c0.6-2.7,0.9-5.6,0.9-8.5C79.9,37,79.6,34.2,79,31.5z M67.8,65l1.7,1.7c3.8-4.2,6.7-9.1,8.5-14.6l-2.4-0.6
	C74,56.6,71.3,61.2,67.8,65z M40,77.4c-2.7,0-5.3-0.3-7.8-0.8L31.5,79c2.7,0.6,5.6,0.9,8.5,0.9c2.9,0,5.7-0.3,8.5-0.9l-0.6-2.4
	C45.3,77.1,42.7,77.4,40,77.4z M13.2,69.5c4.2,3.8,9.1,6.7,14.6,8.5l0.6-2.4c-5.1-1.6-9.7-4.3-13.6-7.8L13.2,69.5z"/>
</svg>
