<?xml version="1.0" encoding="iso-8859-1"?>
<!-- Generator: Adobe Illustrator 19.0.0, SVG Export Plug-In . SVG Version: 6.00 Build 0)  -->
<svg xmlns="http://www.w3.org/2000/svg" xmlns:xlink="http://www.w3.org/1999/xlink" version="1.1" id="Layer_1" x="0px" y="0px" viewBox="0 0 512 512" style="enable-background:new 0 0 512 512;" xml:space="preserve" width="512px" height="512px">
<g transform="translate(1 1)">
	<g>
		<g>
			<path d="M236.227,178.2c0-18.773-15.36-34.133-34.133-34.133s-34.133,15.36-34.133,34.133s15.36,34.133,34.133,34.133     S236.227,196.973,236.227,178.2z M185.027,178.2c0-9.387,7.68-17.067,17.067-17.067s17.067,7.68,17.067,17.067     s-7.68,17.067-17.067,17.067S185.027,187.587,185.027,178.2z" fill="#f7f3ce"/>
			<path d="M304.493,144.067c-18.773,0-34.133,15.36-34.133,34.133s15.36,34.133,34.133,34.133c18.773,0,34.133-15.36,34.133-34.133     S323.267,144.067,304.493,144.067z M304.493,195.267c-9.387,0-17.067-7.68-17.067-17.067s7.68-17.067,17.067-17.067     c9.387,0,17.067,7.68,17.067,17.067S313.88,195.267,304.493,195.267z" fill="#f7f3ce"/>
			<path d="M196.12,231.96c-3.413,3.413-3.413,8.533,0,11.947c11.947,11.947,34.133,19.627,57.173,19.627     c23.04,0,45.227-7.68,57.173-19.627c3.413-3.413,3.413-8.533,0-11.947s-8.533-3.413-11.947,0     c-6.827,6.827-22.187,14.507-45.227,14.507c-23.04,0-38.4-7.68-45.227-14.507C204.653,228.547,199.533,228.547,196.12,231.96z" fill="#f7f3ce"/>
			<path d="M393.24,99.693c-9.387,0-19.627,3.413-27.307,8.533c-30.593-18.19-67.595-29.971-100.915-32.238l17.288-59.069     l49.01,14.415c-0.795,3.3-1.223,6.757-1.223,10.332c0,23.893,18.773,42.667,42.667,42.667s42.667-18.773,42.667-42.667     C415.427,17.773,396.653-1,372.76-1c-14.205,0-26.6,6.637-34.317,17.039l-54.43-15.332c-7.68-1.707-15.36,2.56-17.92,10.24     l-19.385,65.133c-34.109,2.054-71.386,13.662-102.642,31.294C136.387,101.4,127,98.84,116.76,98.84     c-27.307,0-49.493,22.187-49.493,49.493c0,15.36,7.68,29.867,19.627,39.253c0,2.56,0,5.12,0,7.68     c0,32.427,18.773,61.44,52.053,83.627c5.973,4.267,11.947,7.68,18.773,11.093c-18.773,15.36-29.867,39.253-29.867,66.56     c0,36.693,20.48,68.267,50.347,78.507c0.853,1.707,0.853,2.56,1.707,4.267c-26.453,4.267-46.08,23.04-46.08,46.08     c0,3.413,0.853,10.24,2.56,15.36c1.707,5.973,7.68,10.24,14.507,10.24H357.4c6.827,0,12.8-4.267,13.653-11.093     c1.707-3.413,0.853-8.533,0.853-11.947c0-0.853,0-1.707,0-2.56c0-23.04-17.92-40.96-41.813-45.227     c0.853-1.707,0.853-2.56,1.707-4.267c29.867-10.24,50.347-41.813,50.347-78.507c0-26.453-11.947-51.2-29.867-66.56     c6.827-3.413,12.8-6.827,18.773-11.093c33.28-22.187,52.053-51.2,52.053-83.627c0-2.56,0-5.12,0-7.68     c11.947-9.387,19.627-23.893,19.627-39.253C442.733,121.88,420.547,99.693,393.24,99.693z M372.76,16.067     c14.507,0,25.6,11.093,25.6,25.6c0,14.507-11.093,25.6-25.6,25.6c-14.507,0-25.6-11.093-25.6-25.6     C347.16,27.16,358.253,16.067,372.76,16.067z M409.453,178.2c-3.413,1.707-5.12,5.12-4.267,8.533     c0.853,3.413,0.853,6.827,0.853,10.24c0,25.6-16.213,50.347-44.373,69.12c-9.387,5.973-19.627,11.093-30.72,15.36     c-2.56,0.853-5.12,4.267-5.12,7.68c0,3.413,1.707,5.973,5.12,7.68c20.48,9.387,34.133,34.133,34.133,60.587     c0,29.867-17.92,56.32-41.813,63.147c-2.56,0.853-5.12,3.413-5.973,5.973c-1.707,5.973-4.267,11.947-6.827,17.92     c-0.853,2.56-0.853,5.973,0.853,8.533c1.707,2.56,5.12,3.413,7.68,3.413c0.853,0,1.707,0,2.56,0     c19.627,0,34.133,11.947,34.133,29.013c0,1.707,0,2.56,0,4.267c0,0.853,0,2.56,0,4.267H151.747c0-2.56-0.853-6.827-0.853-8.533     c0-16.213,17.067-29.013,34.133-28.16c0.853,0,2.56,0,3.413,0c3.413,0,5.973-0.853,7.68-3.413s1.707-5.973,0.853-8.533     c-2.56-5.973-5.12-12.8-6.827-18.773c-0.853-3.413-3.413-5.12-5.973-5.973c-23.893-5.973-41.813-33.28-41.813-63.147     c0-26.453,13.653-51.2,34.133-60.587c3.413-0.853,5.12-4.267,5.12-7.68c0-3.413-1.707-6.827-5.12-7.68     c-11.093-4.267-21.333-9.387-30.72-15.36c-29.013-18.773-44.373-42.667-44.373-69.12c0-3.413,0-6.827,0.853-10.24     c0-3.413-0.853-6.827-4.267-8.533c-9.387-5.12-15.36-16.213-15.36-27.307c0-17.92,14.507-32.427,32.427-32.427     c7.68,0,15.36,3.413,21.333,8.533c2.56,2.56,6.827,2.56,10.24,0.853c31.573-20.48,70.827-32.427,104.96-33.28h8.533     c33.28,1.707,70.827,13.653,100.693,33.28c3.413,1.707,7.68,1.707,10.24-0.853c5.973-5.973,13.653-8.533,21.333-8.533     c17.92,0,32.427,14.507,32.427,32.427C424.813,161.987,418.84,172.227,409.453,178.2z" fill="#f7f3ce"/>
			<path d="M309.613,310.467c-1.707-0.853-4.267-1.707-6.827-0.853c-30.72,9.387-65.707,9.387-95.573,0     c-2.56-0.853-5.12-0.853-6.827,0.853c-2.56,1.707-4.267,3.413-4.267,5.973c-1.707,11.093-2.56,23.893-2.56,35.84     c0,53.76,17.92,99.84,44.373,115.2c1.707,0.853,2.56,0.853,4.267,0.853h25.6c1.707,0,3.413,0,4.267-0.853     c26.453-14.507,44.373-61.44,44.373-115.2c0-11.947-0.853-23.893-2.56-35.84C313.027,313.88,311.32,312.173,309.613,310.467z      M266.093,451.267H244.76c-19.627-12.8-33.28-54.613-34.133-99.84c0-7.68,0.853-16.213,1.707-23.893     c27.307,6.827,58.027,6.827,85.333,0c0.853,7.68,1.707,15.36,1.707,23.893C299.373,396.653,285.72,438.467,266.093,451.267z" fill="#f7f3ce"/>
		</g>
	</g>
</g>
<g>
</g>
<g>
</g>
<g>
</g>
<g>
</g>
<g>
</g>
<g>
</g>
<g>
</g>
<g>
</g>
<g>
</g>
<g>
</g>
<g>
</g>
<g>
</g>
<g>
</g>
<g>
</g>
<g>
</g>
</svg>
