<?xml version="1.0" encoding="utf-8"?>
<!-- Generator: Adobe Illustrator 19.2.0, SVG Export Plug-In . SVG Version: 6.00 Build 0)  -->
<svg version="1.1" id="Layer_1" xmlns="http://www.w3.org/2000/svg" xmlns:xlink="http://www.w3.org/1999/xlink" x="0px" y="0px"
	 viewBox="0 0 512 512" style="enable-background:new 0 0 512 512;" xml:space="preserve">
<style type="text/css">
	.st0{fill:#F7F3CE;}
</style>
<g>
	<g>
		<path class="st0" d="M509.1,94.4c-2.6-2.6-7-3.5-10.4-2.6l-17.4,6.1c10.4-12.2,17.4-25.2,21.7-37.4c1.7-4.3,0.9-7.8-1.7-10.4
			c-2.6-2.6-7-3.5-10.4-1.7c-24.3,10.4-45.2,19.1-62.6,24.3c0,0.9-0.9,0-1.7,0c-13.9-7.8-47.8-25.2-72.1-25.2
			c-61.7,0.9-111.2,53-111.2,116.5v3.5C152.8,150,103.2,123.9,49.3,67.4l-8.7-8.7l-5.2,10.4c-29.5,56.5-8.7,107.8,25.2,142.5
			c-15.6-2.6-26.1-7.8-35.6-15.6c-3.5-2.6-7.8-3.5-12.2-0.9c-3.5,1.7-5.2,7-4.3,11.3c12.2,40.8,42.6,73.9,75.6,93.9
			c-15.6,0-28.7-1.7-41.7-10.4c-3.5-1.7-8.7-1.7-12.2,0.9s-5.2,7-3.5,11.3c15.6,44.3,46.1,67.8,94.7,73.9
			C96.3,390.7,63.3,402.9,12,403.8c-5.2,0-9.6,3.5-11.3,7.8c-1.7,5.2,0,9.6,3.5,13c31.3,25.2,100.8,40,186.8,40
			c152.9,0,278.1-136.4,278.1-304.2v-2.6c19.1-9.6,34.8-27.8,42.6-53C512.5,101.3,511.7,97,509.1,94.4z M456.9,143.9l-5.2,1.7v14.8
			c0,158.2-117.3,286.8-260.7,286.8c-79.1,0-132.1-13-160.8-26.9c60-4.3,94.7-23.5,121.7-44.3l21.7-15.6h-26.1
			c-49.5,0-80-13.9-97.3-46.9c15.6,5.2,32.2,5.2,50.4,4.3c7-0.9,13.9-0.9,20.9-0.9l2.6-17.4c-33-9.6-72.1-39.1-91.2-79.1
			c17.4,7.8,36.5,9.6,53.9,9.6h26.9l-21.7-15.6c-18.2-13-72.1-59.1-46.1-125.1c55.6,54.7,108.6,80,204.2,97.3l10.4,1.7v-24.3
			c0-53.9,41.7-98.2,93.9-99.1c20-0.9,53,17.4,62.6,22.6c5.2,2.6,10.4,3.5,15.6,1.7c13-4.3,28.7-10.4,46.1-17.4
			c-7.8,13-18.2,25.2-32.2,36.5c-3.5,2.6-4.3,7.8-2.6,12.2c1.7,4.3,7,6.1,11.3,4.3l33.9-11.3C483,124.8,473.4,137.8,456.9,143.9z"/>
	</g>
</g>
</svg>
